PathFileType	4	(X/Y/Z)	D:\TRACE\v60_Jaco2_6-2-23\ArmBody_Mo2_DMP_1-platform.trc
DataRate	CameraRate	NumFrames	NumMarkers	Units	OrigDataRate	OrigDataStartFrame	OrigNumFrames
100.00	100.00	      36	5	mm	100.00	819	      6551
Frame#	Time	Left_Front			Right_Front			Left_Aft			Right_Aft			Post			
		X1	Y1	Z1	X2	Y2	Z2	X3	Y3	Z3	X4	Y4	Z4	X5	Y5	Z5	

819	8.180				829.83209	64.64735	-616.43829	-670.03955	-32.30363	493.03931	747.65619	-37.17084	595.29651	51.50566	1384.55103	-838.04926	
820	8.190				829.68372	65.15803	-616.28485	-670.29523	-32.92905	493.20313	747.24188	-37.92995	595.31519	50.90361	1385.80103	-836.58826	
821	8.200				829.08795	66.18120	-616.16162	-670.33899	-33.57371	493.46097	746.90594	-38.49554	595.46857	50.44379	1386.51990	-835.41412	
822	8.210				829.13940	66.86692	-615.76068	-670.50763	-33.71726	493.89142	746.80396	-38.83045	595.51978	50.27245	1387.72485	-834.31537	
823	8.220				828.80286	67.56419	-615.55652	-670.48975	-34.53797	494.20187	746.67780	-40.04993	595.40656	49.43457	1388.57849	-833.33862	
824	8.230				828.31964	68.05568	-615.31915	-671.19684	-34.93989	494.01279	746.35309	-40.53306	595.52063	49.68014	1389.52393	-832.23224	
825	8.240				828.11615	68.58298	-615.03851	-671.52161	-35.57356	494.38351	745.95184	-41.00039	595.77728	49.26950	1390.19763	-830.95215	
826	8.250				827.55402	69.25819	-614.75635	-671.83746	-36.20799	494.55368	745.50201	-41.33044	596.07861	48.70145	1390.78662	-829.71222	
827	8.260				827.07806	69.67062	-614.63519	-672.19232	-36.44100	494.58469	745.09326	-41.80875	596.12042	48.18155	1391.80054	-828.34149	
828	8.270				826.44043	70.29225	-614.57672	-672.92236	-36.05330	494.36932	744.52478	-42.22380	595.99182	47.70922	1392.30164	-826.90106	
829	8.280				826.03857	70.62035	-614.37646	-673.49487	-36.34216	494.39917	743.93903	-42.76011	596.10596	47.19381	1392.67078	-825.41516	
830	8.290				825.81482	70.85231	-614.27795	-674.55762	-36.39883	494.13214	743.69434	-43.00801	596.17395	46.87583	1392.86621	-823.82294	
831	8.300				825.42407	71.13700	-614.19543	-674.79376	-36.56318	494.18408	743.30914	-43.21246	596.27185	46.31517	1393.30371	-822.59192	
832	8.310				824.59418	71.41341	-614.10968	-675.16364	-36.73637	494.14746	742.73700	-43.48964	596.44562	45.83505	1393.59424	-821.63971	
833	8.320				823.98309	71.76884	-614.04138	-675.50214	-36.87356	494.15085	741.92499	-43.55745	596.46851	45.47228	1393.99719	-820.77203	
834	8.330				823.58221	72.08759	-613.89063	-676.24725	-37.07950	494.25531	741.47467	-43.72424	596.51398	44.99002	1394.42969	-820.33289	
835	8.340				822.99506	72.22699	-613.85986	-677.01929	-37.29937	494.38647	740.92004	-43.94115	596.36060	44.35835	1394.76672	-820.09412	
836	8.350				822.49255	72.36266	-613.82922	-677.47711	-37.48600	494.46448	740.51544	-44.29425	596.35529	43.67619	1394.98254	-820.24713	
837	8.360				821.91852	72.55944	-613.75641	-677.81549	-37.90153	494.52988	739.93207	-44.41644	596.38232	43.10300	1395.26575	-820.42450	
838	8.370				821.27393	72.75660	-613.51874	-678.31445	-37.96930	494.60352	739.21057	-44.44660	596.47064	42.51067	1395.54688	-820.67767	
839	8.380				820.77802	72.92822	-613.58118	-679.32617	-37.84765	494.55469	738.66187	-44.55120	596.41791	41.85941	1395.75854	-820.79218	
840	8.390				820.14331	73.09773	-613.58887	-679.88171	-37.72848	494.57590	738.15765	-44.79926	596.33185	41.18182	1395.83521	-820.82837	
841	8.400				819.14929	73.07379	-613.83801	-680.34851	-37.80581	494.51376	737.37183	-44.81389	596.26782	40.62167	1395.67273	-820.73431	
842	8.410				818.40344	72.90816	-613.87085	-681.04303	-37.94262	494.55713	736.45862	-44.72348	596.49792	39.77835	1395.48853	-820.58264	
843	8.420				817.78442	72.75191	-613.76544	-681.96411	-37.67234	494.52090	735.34265	-44.19492	596.53021	39.26416	1395.48572	-820.41589	
844	8.430				817.17401	72.46756	-613.90253	-682.62903	-37.45890	494.40152	734.82336	-44.06806	596.48419	38.47903	1395.32813	-820.46344	
845	8.440				816.53943	72.41624	-613.94708	-683.18494	-37.40198	494.20636	733.98987	-43.98481	596.45471	37.83165	1395.10278	-820.56268	
846	8.450				815.74799	72.23263	-613.98999	-683.92273	-37.48177	494.48111	733.31335	-43.78614	596.37848	36.91999	1394.68042	-820.48676	
847	8.460				814.78003	71.91717	-614.11096	-684.93494	-37.38670	494.32800	732.61615	-43.57945	596.45319	36.20378	1394.36414	-820.78058	
848	8.470				814.04919	71.79768	-614.07190	-685.67108	-37.17902	494.29745	731.48975	-43.55679	596.49738	35.63803	1394.19604	-821.35571	
849	8.480				813.43683	71.75243	-614.20715	-686.54224	-36.91931	494.14398	731.03717	-43.16123	596.38538	34.99471	1394.01917	-821.98242	
850	8.490				812.60852	71.39674	-614.40717	-687.22833	-36.59697	494.24084	730.55115	-42.90631	596.24615	33.81555	1393.68042	-822.91132	
851	8.500				811.63007	70.92897	-614.53076	-688.03284	-36.34956	494.13870	729.61884	-42.78110	596.16241	32.86611	1393.09021	-823.68024	
852	8.510				810.65021	70.54888	-614.63159	-688.99402	-36.11671	494.17007	728.39581	-42.41306	596.13177	32.22022	1392.78064	-824.87592	
853	8.520				809.99329	70.13447	-614.78577	-689.69244	-35.93354	493.94122	727.62756	-42.10343	596.06244	31.47032	1391.89966	-825.82495	
854	8.530				809.10010	69.73671	-615.06445	-690.76617	-35.48147	493.81671	726.67603	-41.69628	595.85309	30.44676	1391.34521	-827.23492	
